<?xml version="1.0" encoding="utf-8"?>
<!-- Generator: Adobe Illustrator 21.0.0, SVG Export Plug-In . SVG Version: 6.00 Build 0)  -->
<svg version="1.1" id="Layer_1" xmlns="http://www.w3.org/2000/svg" xmlns:xlink="http://www.w3.org/1999/xlink" x="0px" y="0px"
	 width="28px" height="28px" viewBox="0 0 28 28" style="enable-background:new 0 0 28 28;" xml:space="preserve">
<style type="text/css">
	.st0{fill:#767676;}
</style>
<g>
	<path class="st0" d="M14,1C6.8,1,1,6.8,1,14c0,7.2,5.8,13,13,13c7.2,0,13-5.8,13-13C27,6.8,21.2,1,14,1L14,1z M14,25.4
		C7.7,25.4,2.6,20.3,2.6,14S7.7,2.6,14,2.6S25.4,7.7,25.4,14S20.3,25.4,14,25.4L14,25.4z M14,25.4"/>
	<path class="st0" d="M15.5,8.8c0,0.7-0.6,1.3-1.3,1.3c-0.7,0-1.3-0.6-1.3-1.3c0-0.7,0.6-1.3,1.3-1.3C14.9,7.5,15.5,8.1,15.5,8.8
		L15.5,8.8z M15.5,8.8"/>
	<path class="st0" d="M13.9,12.3c-0.4,0-0.8,0.4-0.8,0.8v6.8c0,0.4,0.4,0.8,0.8,0.8c0.4,0,0.8-0.4,0.8-0.8v-6.8
		C14.7,12.7,14.3,12.3,13.9,12.3L13.9,12.3z M13.9,12.3"/>
</g>
<g>
</g>
<g>
</g>
<g>
</g>
<g>
</g>
<g>
</g>
<g>
</g>
<g>
</g>
<g>
</g>
<g>
</g>
<g>
</g>
<g>
</g>
<g>
</g>
<g>
</g>
<g>
</g>
<g>
</g>
</svg>
